@startuml domain-model

package 利用者管理 {
  class 施設
  class 建物
  class 部屋
}

package スタッフ管理 {
  class ユーザー
}

package 契約管理 {
  class 契約
}


package トレーニング管理 {
  class トレーニング
  class トレーニング個別詳細
  class トレーニング操作履歴
  class 点検履歴
  class 点検テンプレート
  class 点検テンプレート項目
  class 点検テンプレート項目の選択肢
  class 連絡先
}

package 研修管理 {
  class 研修会
  class 研修対象者
  class 研修項目
}

class 契約 {
  posfitを利用する法人格（ジム等）
  ---
  名称
  契約開始日
  契約終了日
  契約ステータス
}

class 施設 {
  契約している法人が利用している施設
  ---
  名称
  認証コード
}
施設 "*" -- "1" 契約

class ユーザー {
  契約毎のログインユーザー（スタッフ）
  ---
  管理番号
  ログインID
  パスワード
  表示名
  職種
  ロール
}
ユーザー "*" -- "1" 施設

class トレーニング {
  施設で管理しているトレーニング
  ---
  名称
  部位
}
トレーニング "*" -- "1" 施設

class トレーニング個別詳細 {
  施設で管理しているトレーニングで個別に必要なもの
  ---
  管理番号
  製造番号
  最後に点検した日付
  購入価格
  納入日
  納入区分
  代理店
  製造販売業者
  契約終了日時
}
トレーニング個別詳細 "*" -- "1" 施設
トレーニング個別詳細 "*" -- "1" トレーニング

class 連絡先 {
  トレーニングの連絡先
  ---
  アップロードした名刺ファイル
}
連絡先 "1" -- "1" トレーニング


class トレーニング操作履歴 {
  トレーニングの貸出、移動、返却履歴
  ---
  操作日時
  アクション（貸出、返却、移動）
}
トレーニング操作履歴 "*" -- "1" トレーニング個別詳細

class 点検テンプレート {
  トレーニング点検で利用する点検内容
  ---
  点検分類
}
点検テンプレート "1" -- "1" トレーニング個別詳細

class 点検テンプレート項目 {
  点検テンプレートの項目で、ラベルと入力形式を管理
  ---
  ラベル名
  入力形式
}
点検テンプレート項目 "*" -- "1" 点検テンプレート

class 点検テンプレート項目の選択肢 {
  点検テンプレート項目で入力形式がラジオボタン等の場合に使用する
  ---
  表示名
  キー
  バリュー
}
点検テンプレート項目の選択肢 "*" -- "1" 点検テンプレート項目

class 点検履歴 {
  トレーニングの点検履歴で点検内容や日時等を保存する
  ---
  点検日時
  点検した人
  点検内容(json)
}
点検履歴 "*" -- "1" トレーニング個別詳細
点検履歴 "*" -- "1" ユーザー

class 研修会 {
  研修会
  ---
  名称
  研修日
  研修時間
  研修目的
  研修場所
  対象機器分類
  対象機器名
  添付資料
  備考
}
研修会 "*" -- "1" 施設
研修会 "*" -- "1" ユーザー

class 研修対象者 {
  研修会で必要な対象者
  ---
  対象者
}
研修対象者 "*" -- "1" 研修会

class 研修項目 {
  研修会で必要な対象者
  ---
  研修項目
}
研修項目 "*" -- "1" 研修会

@enduml
